<svg width="18" height="16" viewBox="0 0 18 16" fill="none" xmlns="http://www.w3.org/2000/svg">
<path d="M7.94527 16C8.819 16 9.5273 15.2837 9.5273 14.4C9.5273 13.5163 8.819 12.8 7.94527 12.8C7.07154 12.8 6.36324 13.5163 6.36324 14.4C6.36324 15.2837 7.07154 16 7.94527 16Z" fill="#474747"/>
<path d="M13.2538 16C14.1276 16 14.8359 15.2837 14.8359 14.4C14.8359 13.5163 14.1276 12.8 13.2538 12.8C12.3801 12.8 11.6718 13.5163 11.6718 14.4C11.6718 15.2837 12.3801 16 13.2538 16Z" fill="#474747"/>
<path d="M0.52734 1.0667H2.72645L5.27238 10.0805L5.0727 10.4844C4.5469 11.5468 5.31017 12.8 6.48787 12.8H15.3632C15.6547 12.8 15.8905 12.5615 15.8905 12.2667C15.8905 11.9719 15.6547 11.7333 15.3632 11.7333H6.48787C6.09626 11.7333 5.84033 11.3163 6.01614 10.9615L6.1619 10.6667H15.3632C15.5985 10.6667 15.8055 10.5089 15.8704 10.2797L17.9798 2.81304C18.0251 2.65212 17.9932 2.47917 17.8938 2.34534C17.7939 2.21201 17.6379 2.13336 17.4726 2.13336H4.12461L3.63126 0.386985C3.56637 0.157831 3.35937 0 3.124 0H0.52734C0.235862 0 0 0.238541 0 0.533332C0 0.828122 0.235862 1.0667 0.52734 1.0667Z" fill="#474747"/>
</svg>
