<svg width="18" height="18" viewBox="0 0 18 18" fill="none" xmlns="http://www.w3.org/2000/svg">
<path d="M16 3.99901H4.968C4.784 3.99901 4.63467 3.84968 4.63467 3.66567C4.63467 3.48167 4.784 3.33233 4.968 3.33233H14.6987V2.0523C14.6987 1.63429 14.5933 1.21362 14.3533 0.87161C13.8633 0.172927 13.044 -0.12508 12.2607 0.0482574L1.56133 2.45098C0.642 2.65765 0 3.461 0 4.40302V16C0 17.1046 0.895333 18 2 18H16C17.1047 18 18 17.1046 18 16V5.99906C18 4.89437 17.1047 3.99901 16 3.99901ZM9 15.6666C6.42667 15.6666 4.33333 13.5726 4.33333 10.9998C4.33333 8.42712 6.42667 6.33307 9 6.33307C11.5727 6.33307 13.6667 8.42712 13.6667 10.9998C13.6667 13.5726 11.5727 15.6666 9 15.6666Z" fill="#474747"/>
<path d="M9 6.99975C6.794 6.99975 5 8.79379 5 10.9998C5 13.2059 6.794 14.9999 9 14.9999C11.206 14.9999 13 13.2059 13 10.9998C13 8.79379 11.206 6.99975 9 6.99975ZM9.68533 9.4218H10.8247C11.0087 9.4218 11.158 9.57114 11.158 9.75515C11.158 9.93915 11.0087 10.0885 10.8247 10.0885H9.68533C9.58333 10.5358 9.282 10.9045 8.88 11.1032L11.0553 13.1792C11.188 13.3059 11.1933 13.5172 11.066 13.6506C11.0007 13.7192 10.9133 13.7532 10.8253 13.7532C10.7427 13.7532 10.66 13.7226 10.5953 13.6606L8.08333 11.2632H7.17467C6.99067 11.2632 6.84133 11.1138 6.84133 10.9298C6.84133 10.7458 6.99067 10.5965 7.17467 10.5965H8.21667C8.562 10.5965 8.85867 10.3865 8.988 10.0878H7.17467C6.99067 10.0878 6.84133 9.93848 6.84133 9.75448C6.84133 9.57047 6.99067 9.42114 7.17467 9.42114H8.988C8.85867 9.12246 8.562 8.91246 8.21667 8.91246H7.17467C6.99067 8.91246 6.84133 8.76312 6.84133 8.57912C6.84133 8.39511 6.99067 8.24578 7.17467 8.24578H10.8247C11.0087 8.24578 11.158 8.39511 11.158 8.57912C11.158 8.76312 11.0087 8.91246 10.8247 8.91246H9.46733C9.57 9.06513 9.64333 9.2378 9.68533 9.4218Z" fill="#474747"/>
</svg>
