<svg width="10" height="10" viewBox="0 0 10 10" fill="none" xmlns="http://www.w3.org/2000/svg">
<path d="M4.85074 0.587323C4.84296 0.628094 4.83893 0.669432 4.83867 0.710866L4.6989 7.76429L4.62687 7.609C4.55518 7.45718 4.45626 7.3184 4.3346 7.19887L2.29806 5.17978C2.04226 4.91411 1.62331 4.86202 1.30542 5.05634C0.966278 5.28312 0.884776 5.72929 1.1234 6.05293C1.14269 6.07907 1.16379 6.10398 1.18656 6.12744L4.86927 9.7786C5.15674 10.0639 5.63206 10.0736 5.93093 9.80019C5.93112 9.80002 5.93134 9.79982 5.93153 9.79965L9.75599 6.29726C10.0543 6.02331 10.0626 5.57036 9.77456 5.28556C9.75189 5.26315 9.72771 5.24216 9.70218 5.22274C9.39224 5.01597 8.97156 5.05142 8.70543 5.30675L6.58682 7.23992C6.47448 7.34269 6.37963 7.46153 6.30572 7.59217L6.20012 7.80477L6.33932 0.779986C6.3608 0.414833 6.09927 0.0889119 5.72368 0.01279C5.31567 -0.0585619 4.92486 0.198658 4.85074 0.587323Z" fill="#474747"/>
</svg>
