<svg width="16" height="16" viewBox="0 0 16 16" fill="none" xmlns="http://www.w3.org/2000/svg">
<path d="M7.33333 9.16667C7.33333 8.89133 7.108 8.66667 6.83333 8.66667H4.33333V10.6667C4.33333 11.0347 4.03467 11.3333 3.66667 11.3333C3.29867 11.3333 3 11.0347 3 10.6667V8.66667H0.5C0.224667 8.66667 0 8.89133 0 9.16667V15.5C0 15.7753 0.224667 16 0.5 16H6.83333C7.108 16 7.33333 15.7753 7.33333 15.5V9.16667Z" fill="#F8991D"/>
<path d="M16 9.16667C16 8.89133 15.7747 8.66667 15.5 8.66667H13V10.6667C13 11.0347 12.7013 11.3333 12.3333 11.3333C11.9653 11.3333 11.6667 11.0347 11.6667 10.6667V8.66667H9.16667C8.89133 8.66667 8.66667 8.89133 8.66667 9.16667V15.5C8.66667 15.7753 8.89133 16 9.16667 16H15.5C15.7747 16 16 15.7753 16 15.5V9.16667Z" fill="#F8991D"/>
<path d="M11.6667 0.5C11.6667 0.225333 11.4413 0 11.1667 0H8.66667V2C8.66667 2.368 8.368 2.66667 8 2.66667C7.632 2.66667 7.33333 2.368 7.33333 2V0H4.83333C4.558 0 4.33333 0.225333 4.33333 0.5V6.83333C4.33333 7.10867 4.558 7.33333 4.83333 7.33333H11.1667C11.4413 7.33333 11.6667 7.10867 11.6667 6.83333V0.5Z" fill="#F8991D"/>
</svg>
