<svg width="18" height="20" viewBox="0 0 18 20" fill="none" xmlns="http://www.w3.org/2000/svg">
<path d="M8.63663 20C10.2007 20 11.5091 18.9241 11.8096 17.5H5.4637C5.76431 18.9241 7.0727 20 8.63663 20Z" fill="#474747"/>
<path d="M14.6923 9.99924C14.6888 9.99924 14.6854 10 14.6819 10C11.3492 10 8.63663 7.38327 8.63663 4.16672C8.63663 3.28247 8.84742 2.44659 9.21445 1.69495C9.02437 1.67755 8.83176 1.66672 8.63663 1.66672C5.29798 1.66672 2.59138 4.27826 2.59138 7.5V9.8233C2.59138 11.4725 1.84262 13.0292 0.529017 14.1008C0.0911477 14.4617 -0.103197 15.0366 0.0539865 15.5975C0.237104 16.25 0.90553 16.6667 1.60685 16.6667H15.6621C16.3979 16.6667 17.0915 16.2067 17.2408 15.5109C17.3565 14.9725 17.1579 14.435 16.7253 14.0842C15.4695 13.0684 14.7432 11.5758 14.6923 9.99924Z" fill="#474747"/>
</svg>
