<svg width="38" height="40" viewBox="0 0 38 40" fill="none" xmlns="http://www.w3.org/2000/svg">
<path d="M33.5199 33.2032C36.3144 29.8705 38 25.5637 38 20.8594C38 10.2884 29.4934 1.71889 19 1.71889C8.50655 1.71889 0 10.2884 0 20.8594C0 25.5853 1.70109 29.9102 4.51877 33.2491L33.5199 33.2032Z" fill="#F8991D"/>
<path d="M25.6057 29.6814C23.1324 33.8977 19.1447 33.9347 19.1447 33.9347C19.1447 33.9347 15.1603 33.8977 12.687 29.6863C12.6303 29.7555 12.5719 29.8228 12.5096 29.8855C12.1778 29.9627 11.8509 30.0477 11.5274 30.1387C11.7053 30.2168 11.8601 30.3495 11.9635 30.5274C13.4843 33.1441 16.136 36.2697 19.1532 36.2697C22.1704 36.2697 24.8221 33.1441 26.3429 30.5274C26.4456 30.3509 26.5989 30.2187 26.7752 30.1404C26.4498 30.0487 26.121 29.9631 25.7871 29.8855C25.7234 29.8214 25.6637 29.7524 25.6057 29.6814Z" fill="#FCAD6D"/>
<path d="M16.8958 33.4109C15.5815 32.8823 13.9403 31.8204 12.687 29.6863C12.6303 29.7555 12.5719 29.8228 12.5096 29.8855C12.1778 29.9627 11.8509 30.0477 11.5274 30.1387C11.7053 30.2168 11.8601 30.3495 11.9635 30.5274C12.8447 32.0437 14.1056 33.7308 15.5974 34.8816C15.6748 34.8518 15.7409 34.823 15.7931 34.7948C16.3714 34.4824 16.7181 33.8423 16.8958 33.4109Z" fill="#FD995B"/>
<path d="M29.2999 7.9971C29.2999 5.86186 28.0788 4.9771 27.2711 4.62546C26.864 4.44819 26.5461 4.12491 26.3844 3.72131C26.031 2.83905 25.0317 1.3103 22.2373 0.376079C18.1291 -0.997515 14.4772 1.79389 12.5143 2.32561C11.2235 2.67522 10.2091 1.90397 9.66571 1.33483C9.43608 1.09428 9.02785 1.1671 8.89748 1.4696C8.4732 2.45413 7.85504 4.39038 8.42062 6.40397C8.45528 6.52733 8.3312 6.63733 8.20704 6.59444C8.04294 6.5378 7.89552 6.48499 7.7771 6.44171C7.65581 6.39749 7.53483 6.50788 7.57337 6.62788C8.0514 8.11632 8.51477 8.96538 8.9306 9.42335C9.11463 9.62601 9.23762 9.87468 9.26942 10.143C9.33123 10.6658 9.43499 11.223 9.60599 11.7391C9.85842 12.5012 10.0167 13.2909 10.0623 14.093C10.0628 14.1024 10.0635 14.109 10.0635 14.109H28.4374C28.4382 14.1051 28.4392 14.0918 28.4404 14.0705C28.485 13.2839 28.6373 12.507 28.8877 11.7607C29.4458 10.0979 29.2999 7.9971 29.2999 7.9971Z" fill="#41416B"/>
<path d="M15.0595 8.95561C15.0595 8.95561 16.7665 6.89585 15.5772 4.57132C14.388 2.24678 17.2635 0.411392 17.2635 0.411392C15.2866 0.994361 13.6284 2.02389 12.5143 2.32561C11.2235 2.67522 10.2091 1.90397 9.66571 1.33483C9.43608 1.09428 9.02785 1.1671 8.89748 1.4696C8.4732 2.45413 7.85504 4.39038 8.42062 6.40397C8.45528 6.52733 8.3312 6.63733 8.20704 6.59444C8.04294 6.5378 7.89552 6.48499 7.7771 6.44171C7.65581 6.39749 7.53483 6.50788 7.57337 6.62788C8.0514 8.11632 8.51477 8.96538 8.9306 9.42335C9.11463 9.62601 9.23762 9.87468 9.26942 10.143C9.33123 10.6658 9.43499 11.223 9.60599 11.7391C9.85842 12.5012 10.0167 13.2909 10.0623 14.093C10.0628 14.1024 10.0635 14.109 10.0635 14.109L13.9383 14.109L15.0595 8.95561Z" fill="#35355E"/>
<path d="M29.0244 14.0265C28.6124 13.6461 27.7916 13.8389 27.4367 14.0719C27.5145 14.5596 27.5188 15.0585 27.4518 15.5512L27.033 18.6238C27.033 18.8715 27.0252 19.1145 27.011 19.3533C28.0322 19.6636 28.5393 18.74 28.6248 18.1062C28.6616 17.8334 28.7217 17.5645 28.8051 17.3021C29.0768 16.4475 30.0568 14.9795 29.0244 14.0265Z" fill="#FCAD6D"/>
<path d="M28.2489 16.9337C27.8699 16.9337 27.5351 16.7466 27.3279 16.4599L27.033 18.6238C27.033 18.8715 27.0252 19.1145 27.011 19.3533C28.0322 19.6636 28.5393 18.74 28.6248 18.1062C28.6616 17.8334 28.7217 17.5645 28.8051 17.3021C28.8754 17.081 28.9932 16.8186 29.1112 16.5349C28.9022 16.7787 28.5938 16.9337 28.2489 16.9337Z" fill="#FD995B"/>
<path d="M9.26531 14.0265C9.67734 13.6461 10.4981 13.8389 10.853 14.0719C10.7752 14.5596 10.7708 15.0585 10.8381 15.5512L11.2568 18.6238C11.2568 18.8715 11.2646 19.1145 11.2789 19.3533C10.2577 19.6636 9.75047 18.74 9.66501 18.1062C9.62825 17.8334 9.56807 17.5645 9.4847 17.3021C9.21288 16.4475 8.23294 14.9795 9.26531 14.0265Z" fill="#FCAD6D"/>
<path d="M26.91 12.4761C26.6564 12.0753 26.5449 11.6012 26.5788 11.1285C26.5994 10.8423 26.613 10.4981 26.6057 10.1262C26.6027 10.0773 26.6012 10.0242 26.6012 9.9664C26.5973 9.85804 26.5913 9.74772 26.5833 9.63616C26.4838 8.64046 25.9526 7.92335 25.5296 7.50179C25.247 7.22022 24.8114 7.16491 24.4635 7.35819C19.2335 10.2633 14.8993 9.19007 12.5657 8.13194C12.2829 8.00374 11.9567 8.16991 11.8824 8.47319C11.6496 9.42366 11.6615 10.4515 11.7118 11.1401C11.746 11.6092 11.6313 12.0784 11.3797 12.4762C11.2347 12.7054 11.1186 12.948 11.0258 13.1882C10.7248 13.9672 10.637 14.8121 10.7498 15.6394L11.1687 18.7126C11.1687 18.7182 11.1689 18.7235 11.1689 18.7291C11.5995 19.9944 12.4709 21.8083 14.0278 22.3231L14.0475 22.3288C14.9845 22.6001 15.7089 23.3446 16.0161 24.2941C16.4499 25.6353 17.6811 25.9919 19.1446 25.9919C20.6088 25.9919 21.8391 25.6351 22.2729 24.2946C22.5803 23.345 23.3045 22.6001 24.2417 22.3288L24.2614 22.3231C25.8184 21.8082 26.69 19.9939 27.1208 18.7286C27.1208 18.7232 27.121 18.718 27.121 18.7126L27.5398 15.6401C27.6515 14.8209 27.5668 13.9843 27.2727 13.2114C27.1785 12.9635 27.0597 12.7126 26.91 12.4761Z" fill="#F9BA8F"/>
<path d="M10.0408 16.9337C10.4198 16.9337 10.7546 16.7466 10.9618 16.4599L11.2568 18.6238C11.2568 18.8715 11.2646 19.1145 11.2789 19.3533C10.2577 19.6636 9.75047 18.74 9.66501 18.1062C9.62825 17.8334 9.56807 17.5645 9.4847 17.3021C9.41444 17.081 9.29649 16.8186 9.17845 16.5349C9.38753 16.7787 9.69595 16.9337 10.0408 16.9337Z" fill="#FD995B"/>
<path d="M14.2388 15.6393C14.1058 14.4086 14.344 13.2619 14.7381 12.4762C14.9377 12.0784 15.0285 11.6092 15.0014 11.1401C14.9683 10.5669 14.9564 9.75866 15.0595 8.95561C14.0811 8.74413 13.2425 8.4385 12.5698 8.13382C12.2852 8.00491 11.9572 8.16803 11.8824 8.47319C11.6496 9.42366 11.6615 10.4515 11.7118 11.1401C11.746 11.6092 11.6313 12.0784 11.3797 12.4762C10.8758 13.2725 10.5838 14.4212 10.7498 15.6394L11.1687 18.7126C11.1687 18.7182 11.1689 18.7235 11.1689 18.7291C11.5995 19.9944 12.4709 21.8083 14.0278 22.3231L14.0475 22.3288C14.4935 22.458 14.8907 22.6952 15.2182 23.0098C14.8225 21.7694 14.571 20.337 14.571 18.7126L14.2388 15.6393Z" fill="#FCAD6D"/>
<path d="M22.0024 15.5437C22.0024 15.3991 22.0292 15.2615 22.0772 15.1364C21.8906 15.2287 21.7399 15.3331 21.6327 15.4213C21.3823 15.6269 20.9472 15.8878 20.7089 16.0257C20.6638 16.0518 20.6822 16.1211 20.7342 16.1211H20.7577C20.9788 16.1211 21.1987 16.1559 21.4087 16.2255C21.773 16.3464 22.1215 16.4065 22.4438 16.4263C22.179 16.2434 22.0024 15.9166 22.0024 15.5437Z" fill="#FFF5EE"/>
<path d="M24.9662 15.7699C24.531 15.3587 24.1127 15.1213 23.7258 15.0012C23.8128 15.1591 23.8631 15.3448 23.8631 15.5437C23.8631 15.8687 23.7289 16.1587 23.5191 16.3489C23.8358 16.283 24.0831 16.1912 24.2362 16.121C24.5502 15.9769 24.7877 15.9184 24.9289 15.8945C24.9877 15.8847 25.0097 15.811 24.9662 15.7699Z" fill="#FFF5EE"/>
<path d="M22.0187 15.1663C21.9657 15.2884 21.9361 15.4232 21.9361 15.5651C21.9361 15.9321 22.1334 16.2525 22.4267 16.4252C22.8499 16.453 23.2285 16.4111 23.5386 16.3449C23.7665 16.1625 23.9128 15.8811 23.9128 15.5651C23.9128 15.358 23.85 15.1658 23.7426 15.0066C23.0339 14.7806 22.4294 14.9491 22.0187 15.1663Z" fill="#41416B"/>
<path d="M23.2931 15.6276C23.2931 15.8384 23.1235 16.0092 22.9142 16.0092C22.705 16.0092 22.5354 15.8384 22.5354 15.6276C22.5354 15.4168 22.705 15.2459 22.9142 15.2459C23.1235 15.2459 23.2931 15.4168 23.2931 15.6276Z" fill="#35355E"/>
<path d="M25.8034 14.3565C25.7468 13.9816 25.5213 13.1101 24.6413 12.9087C23.7527 12.7052 21.879 13.0887 21.1204 13.2615C20.9183 13.3075 20.7581 13.4623 20.7039 13.6638L20.5477 14.2444C20.5344 14.2937 20.5795 14.3387 20.6282 14.325C21.2034 14.1624 23.8517 13.441 24.6584 13.7017C25.2736 13.9005 25.5895 14.2103 25.7292 14.3891C25.7557 14.423 25.8099 14.3992 25.8034 14.3565Z" fill="#41416B"/>
<path d="M16.4892 15.5437C16.4892 15.3991 16.4623 15.2615 16.4143 15.1364C16.6009 15.2287 16.7516 15.3331 16.8589 15.4213C17.1093 15.6269 17.5444 15.8878 17.7826 16.0257C17.8277 16.0518 17.8093 16.1211 17.7574 16.1211H17.7339C17.5128 16.1211 17.2928 16.1559 17.0828 16.2255C16.7186 16.3464 16.37 16.4065 16.0477 16.4263C16.3126 16.2434 16.4892 15.9166 16.4892 15.5437Z" fill="#FFF5EE"/>
<path d="M13.5253 15.7699C13.9605 15.3587 14.3788 15.1213 14.7657 15.0012C14.6787 15.1591 14.6284 15.3448 14.6284 15.5437C14.6284 15.8687 14.7626 16.1587 14.9724 16.3489C14.6557 16.283 14.4084 16.1912 14.2554 16.121C13.9413 15.9769 13.7038 15.9184 13.5626 15.8945C13.5038 15.8847 13.4819 15.811 13.5253 15.7699Z" fill="#FFF5EE"/>
<path d="M16.4728 15.1663C16.5258 15.2884 16.5555 15.4232 16.5555 15.5651C16.5555 15.9321 16.3582 16.2525 16.0648 16.4252C15.6416 16.453 15.2631 16.4111 14.9529 16.3449C14.725 16.1625 14.5788 15.8811 14.5788 15.5651C14.5788 15.358 14.6415 15.1658 14.7489 15.0066C15.4576 14.7806 16.0621 14.9491 16.4728 15.1663Z" fill="#41416B"/>
<path d="M15.1985 15.6276C15.1985 15.8384 15.3681 16.0092 15.5773 16.0092C15.7865 16.0092 15.9561 15.8384 15.9561 15.6276C15.9561 15.4168 15.7865 15.2459 15.5773 15.2459C15.3681 15.2459 15.1985 15.4168 15.1985 15.6276Z" fill="#35355E"/>
<path d="M12.688 14.3565C12.7447 13.9816 12.9702 13.1101 13.8502 12.9087C14.7387 12.7052 16.6125 13.0887 17.3711 13.2615C17.5732 13.3075 17.7333 13.4623 17.7875 13.6638L17.9438 14.2444C17.9571 14.2937 17.912 14.3387 17.8631 14.325C17.288 14.1624 14.6398 13.441 13.833 13.7017C13.2178 13.9005 12.9019 14.2103 12.7622 14.3891C12.7358 14.423 12.6816 14.3992 12.688 14.3565Z" fill="#41416B"/>
<path d="M21.4656 23.2641L20.6196 23.6001C20.5245 23.6379 20.4194 23.6422 20.3215 23.6125L19.3466 23.3163L18.3718 23.6125C18.2738 23.6422 18.1688 23.6379 18.0736 23.6001L17.2277 23.2641C16.994 23.1712 16.8792 22.9051 16.9714 22.6697C17.0633 22.4349 17.3269 22.3184 17.5614 22.4115L18.2604 22.6891L19.2111 22.4003C19.3032 22.3713 19.3992 22.3734 19.4823 22.4004L20.4328 22.6891L21.1318 22.4115C21.365 22.319 21.6293 22.4337 21.7218 22.6697C21.8141 22.9051 21.6993 23.1712 21.4656 23.2641Z" fill="#FCAD6D"/>
<path d="M22.5979 12.978C22.0085 13.0677 21.4556 13.1851 21.1204 13.2615C20.9183 13.3075 20.7581 13.4623 20.7039 13.6638L20.5477 14.2444C20.5344 14.2937 20.5795 14.3387 20.6282 14.325C20.9471 14.2348 21.9033 13.9731 22.8296 13.802C22.4486 13.7279 22.3091 13.2459 22.5979 12.978Z" fill="#35355E"/>
<path d="M15.355 12.9062C14.783 12.8419 14.2276 12.8223 13.8502 12.9087C12.9702 13.1101 12.7447 13.9816 12.688 14.3565C12.6816 14.3992 12.7358 14.423 12.7622 14.3891C12.9019 14.2103 13.2178 13.9005 13.833 13.7017C14.14 13.6025 14.7141 13.6458 15.3388 13.7461C15.0137 13.5561 15.0242 13.0823 15.355 12.9062Z" fill="#35355E"/>
<path d="M27.2942 17.4416C27.2942 17.4416 26.562 21.4212 24.1516 22.2184L24.1324 22.2239C23.2154 22.4894 22.5067 23.2182 22.2059 24.1475C21.7814 25.4593 20.5774 25.8084 19.1447 25.8084C17.7125 25.8084 16.5078 25.4594 16.0833 24.147C15.7827 23.2179 15.0738 22.4893 14.1569 22.2239L14.1377 22.2184C11.7273 21.4212 10.9955 17.4416 10.9955 17.4416C9.1427 34.0833 19.1447 34.1752 19.1447 34.1752C19.1447 34.1752 29.1471 34.0833 27.2942 17.4416Z" fill="#41416B"/>
<path d="M19.6386 24.365H19.0547C18.8034 24.365 18.5999 24.5702 18.5999 24.8232C18.5999 25.0763 18.8035 25.2814 19.0547 25.2814H19.6386C19.8899 25.2814 20.0934 25.0762 20.0934 24.8232C20.0934 24.5702 19.8898 24.365 19.6386 24.365Z" fill="#FCAD6D"/>
<path d="M14.1377 22.3778L14.1569 22.3834C14.7798 22.5637 15.3061 22.958 15.6742 23.4834L16.0993 23.1989C16.3435 23.0355 16.6314 22.9466 16.9244 22.9561C17.9432 22.989 18.8356 22.6899 19.1873 22.553C19.29 22.513 19.4034 22.513 19.5061 22.553C19.8578 22.6899 20.7502 22.989 21.7689 22.9561C22.062 22.9466 22.3499 23.0355 22.5941 23.1989L22.7519 23.3045C23.1089 22.8691 23.5828 22.5426 24.1325 22.3834L24.1517 22.3779C24.3785 22.3029 24.5906 22.1996 24.7885 22.0741C24.0961 20.8809 22.5095 19.2043 19.3467 20.3599C16.0291 19.1477 14.4456 21.0518 13.8095 22.2455C13.9152 22.296 14.0246 22.3404 14.1377 22.3778Z" fill="#41416B"/>
<path d="M17.8206 20.1096L18.1674 20.036C18.8117 20.6772 19.8825 20.6761 20.5258 20.036L20.8726 20.1096C21.1218 20.1622 21.3671 20.0016 21.4197 19.7501C21.4723 19.4986 21.3125 19.2519 21.0629 19.1989L20.4407 19.0669C20.2381 19.024 20.0404 19.1059 19.9448 19.2906C19.6931 19.6826 19.0006 19.6832 18.7485 19.2906C18.6529 19.1059 18.4552 19.0241 18.2526 19.0669L17.6303 19.1989C17.3807 19.2519 17.2209 19.4987 17.2735 19.7501C17.326 20.0016 17.5711 20.1623 17.8206 20.1096Z" fill="#FCAD6D"/>
<path d="M19 40C24.8604 40 30.1003 37.3265 33.5855 33.1249C33.1139 33.0134 32.7513 32.7687 32.1041 32.4011C30.5087 31.4948 28.8917 30.6518 27.1688 30.1015C26.7646 29.9724 26.3235 30.1439 26.1093 30.5125C24.6369 33.0459 22.0695 36.0721 19.1483 36.0721C16.2271 36.0721 13.6598 33.046 12.1873 30.5125C11.973 30.1439 11.5321 29.9723 11.1279 30.1015C9.4049 30.6517 7.78795 31.4948 6.19264 32.4011C5.43287 32.8327 5.06543 33.0949 4.45339 33.1712C7.93864 37.346 13.1613 40 19 40Z" fill="#FFF5EE"/>
<path d="M12.1873 30.5125C11.973 30.1439 11.5321 29.9723 11.1279 30.1015C9.4049 30.6517 7.78795 31.4948 6.19264 32.4011C5.43287 32.8327 5.06543 33.0949 4.45339 33.1712C5.9869 35.008 7.85697 36.5502 9.96762 37.7016C11.7123 35.6988 15.0624 35.1894 15.7931 34.7948C14.3107 33.6796 13.0577 32.0101 12.1873 30.5125Z" fill="#FCE6D6"/>
<path d="M16.7403 20.0167C15.1394 20.2589 14.2486 21.4214 13.8095 22.2455C13.9152 22.296 14.0246 22.3404 14.1377 22.3778L14.1569 22.3834C14.7798 22.5637 15.3061 22.958 15.6742 23.4834L16.0993 23.1989C16.3435 23.0355 16.6314 22.9466 16.9244 22.9561C17.1348 22.9629 17.3393 22.9549 17.5352 22.9377C15.7454 21.8536 16.7403 20.0167 16.7403 20.0167Z" fill="#35355E"/>
<path d="M18.7821 29.5751C17.1977 27.5816 19.3466 25.8084 19.3466 25.8084L19.3455 25.8058C19.279 25.8074 19.2122 25.8084 19.1447 25.8084C17.7125 25.8084 16.5078 25.4594 16.0833 24.147C15.7827 23.2179 15.0738 22.4893 14.1569 22.2239L14.1377 22.2184C11.7273 21.4212 10.9955 17.4416 10.9955 17.4416C9.1427 34.0833 19.1447 34.1752 19.1447 34.1752C19.1447 34.1752 20.9305 32.2782 18.7821 29.5751Z" fill="#35355E"/>
</svg>
