<svg width="19" height="19" viewBox="0 0 19 19" fill="none" xmlns="http://www.w3.org/2000/svg">
<path d="M4.76405 10.0777H3.91199C3.68846 10.0777 3.48668 10.2107 3.39826 10.4157L1.03949 15.908L6.64126 13.047C5.97069 12.1191 5.30721 11.0957 4.76405 10.0777Z" fill="#F8991D"/>
<path d="M15.6016 10.4157C15.5133 10.2107 15.3114 10.0777 15.088 10.0777H14.2359C13.2102 11.9998 11.7158 13.9862 10.7652 15.079C10.0966 15.8458 8.90247 15.845 8.23493 15.079C8.16666 15.0006 7.81021 14.5879 7.31923 13.9533L6.30931 14.4693L10.1295 18.2822L17.3682 14.5295L15.6016 10.4157Z" fill="#F8991D"/>
<path d="M0.350362 17.5132L0.0456599 18.2227C-0.112055 18.5899 0.158148 19 0.559247 19H8.76229C8.81361 18.9619 8.81419 18.9642 9.08961 18.8214L5.26372 15.0035L0.350362 17.5132Z" fill="#F8991D"/>
<path d="M18.9543 18.2227L17.8097 15.5575L11.1695 19H18.4407C18.841 19 19.1123 18.5906 18.9543 18.2227Z" fill="#F8991D"/>
<path d="M10.0588 5.02181C10.0588 4.71421 9.80802 4.46415 9.49998 4.46415C9.1918 4.46415 8.94117 4.71421 8.94117 5.02181C8.94117 5.32926 9.1918 5.57946 9.49998 5.57946C9.80802 5.57946 10.0588 5.32926 10.0588 5.02181Z" fill="#F8991D"/>
<path d="M9.92167 14.31C10.1098 14.094 14.5292 8.98193 14.5292 5.46784C14.5292 -1.77834 4.4708 -1.86676 4.4708 5.46784C4.4708 8.98193 8.89015 14.094 9.0783 14.31C9.3011 14.5656 9.6993 14.5653 9.92167 14.31ZM7.82354 5.02181C7.82354 4.09929 8.57559 3.34884 9.49999 3.34884C10.4242 3.34884 11.1763 4.09929 11.1763 5.02181C11.1763 5.94418 10.4242 6.69463 9.49999 6.69463C8.57559 6.69463 7.82354 5.94418 7.82354 5.02181Z" fill="#F8991D"/>
</svg>
