<svg width="20" height="24" viewBox="0 0 20 24" fill="none" xmlns="http://www.w3.org/2000/svg">
<path d="M4.87184 12.6391L6.10839 13.3449V15.0531L4.87184 14.3472V12.6391ZM8.50247 14.7095L6.62439 13.6414V15.5001C6.62904 15.693 6.40591 15.8295 6.23855 15.7259L4.48599 14.7284C4.40232 14.6813 4.35583 14.5966 4.35583 14.5025V12.3474L2.4824 11.2792V18.2434L8.50247 21.7632V14.7095ZM14.9316 18.2434V11.2839L9.01847 14.7048V21.6973L14.9316 18.2434ZM12.5375 9.93812L6.90797 13.1991L8.75815 14.2531L14.6899 10.8228L12.8629 9.7546L12.5375 9.93812ZM11.0964 8.72409L5.12287 12.1874L6.38266 12.9026L12.3376 9.45345C12.2261 9.38757 11.2359 8.80879 11.0964 8.72409ZM2.73343 10.8228C3.1983 11.0863 4.13734 11.6227 4.60221 11.8862L10.5804 8.42293L8.70701 7.33125L2.73343 10.8228ZM18.2275 6.90775C16.3309 3.92443 12.9141 1.94339 9.42291 1.76458C9.2881 1.75517 9.18583 1.64224 9.18583 1.50578V0L4.88113 2.81862L9.18583 5.63725V4.30558C9.18583 4.15971 9.30669 4.03736 9.4508 4.04677C13.3604 4.05618 17.0328 6.87951 18.1625 10.6628C19.4455 14.4884 17.9347 18.9304 14.82 21.3679C10.1156 25.0994 2.96587 23.5748 0 18.3611C3.51442 25.09 12.6445 25.937 17.4466 20.1445C20.5519 16.4365 20.8401 10.978 18.2275 6.90775Z" fill="#F8991D"/>
</svg>
