<svg width="22" height="16" viewBox="0 0 22 16" fill="none" xmlns="http://www.w3.org/2000/svg">
<path fill-rule="evenodd" clip-rule="evenodd" d="M16.8222 0.29289C16.3927 0.683421 16.3927 1.31658 16.8222 1.70711L18.2444 3H12.1C9.67 3 7.70001 4.79087 7.70001 7.00001V8.00001C7.70001 8.55231 8.1925 9.00001 8.80001 9.00001C9.40754 9.00001 9.90001 8.55231 9.90001 8.00001V7.00001C9.90001 5.89544 10.885 5.00001 12.1 5.00001H18.2444L16.8222 6.29291C16.3927 6.68341 16.3927 7.31661 16.8222 7.70711C17.2518 8.09761 17.9483 8.09761 18.3778 7.70711L21.6778 4.70712C22.1074 4.31659 22.1074 3.68343 21.6778 3.2929L18.3778 0.29289C17.9483 -0.0976302 17.2518 -0.0976302 16.8222 0.29289ZM13.2 7.00001C12.5925 7.00001 12.1 7.44771 12.1 8.00001V9.00001C12.1 10.1046 11.1151 11 9.90001 11H3.75564L5.17783 9.70712C5.6074 9.31662 5.6074 8.68341 5.17783 8.29291C4.74824 7.90241 4.05177 7.90241 3.62218 8.29291L0.322179 11.2929C-0.107393 11.6834 -0.107393 12.3166 0.322179 12.7071L3.62218 15.7071C4.05177 16.0976 4.74824 16.0976 5.17783 15.7071C5.6074 15.3166 5.6074 14.6834 5.17783 14.2929L3.75564 13H9.90001C12.33 13 14.3 11.2091 14.3 9.00001V8.00001C14.3 7.44771 13.8075 7.00001 13.2 7.00001Z" fill="#F8991D"/>
</svg>
