<svg width="26" height="32" viewBox="0 0 26 32" fill="none" xmlns="http://www.w3.org/2000/svg">
<path fill-rule="evenodd" clip-rule="evenodd" d="M16.2348 4.13947C12.1583 10.48 4.602 12.536 4.602 12.536C4.02242 12.6926 3.432 12.3235 3.28358 11.712C3.13517 11.1006 3.48508 10.4777 4.06467 10.3212C4.06467 10.3212 11.2602 8.39775 14.7778 2.30519L12.6468 2.28576C12.0488 2.28004 11.5678 1.76347 11.5732 1.13262C11.5787 0.501761 12.0683 -0.00566648 12.6663 4.77925e-05L17.303 0.0434764C17.8945 0.0480478 18.3722 0.552047 18.3766 1.17605L18.4167 5.95432C18.4221 6.58518 17.9411 7.10175 17.3431 7.10747C16.7451 7.11318 16.2554 6.60575 16.25 5.9749L16.2348 4.13947ZM7.02542 32H2.16667C0.969583 32 0 30.9771 0 29.7143V19.4286C0 18.1657 0.969583 17.1429 2.16667 17.1429H7.02542V32ZM9.19208 16.04C9.19208 14.7555 10.179 13.7143 11.3967 13.7143H14.5134C15.7311 13.7143 16.718 14.7555 16.718 16.04V32H9.19208V16.04ZM18.8847 11.4686C18.8847 10.184 19.8716 9.14289 21.0882 9.14289H23.8333C25.0304 9.14289 26 10.1657 26 11.4286V29.7143C26 30.9771 25.0304 32 23.8333 32H18.8847V11.4686Z" fill="#474747"/>
</svg>
