<svg width="20" height="16" viewBox="0 0 20 16" fill="none" xmlns="http://www.w3.org/2000/svg">
<path d="M10 6.23184C11.8769 6.23184 13.3984 4.8368 13.3984 3.11592C13.3984 1.39505 11.8769 0 10 0C8.12309 0 6.60156 1.39505 6.60156 3.11592C6.60156 4.8368 8.12309 6.23184 10 6.23184Z" fill="#474747"/>
<path d="M16.875 6.23181C18.0616 6.23181 19.0234 5.34988 19.0234 4.26197C19.0234 3.17406 18.0616 2.29214 16.875 2.29214C15.6885 2.29214 14.7266 3.17406 14.7266 4.26197C14.7266 5.34988 15.6885 6.23181 16.875 6.23181Z" fill="#474747"/>
<path d="M3.125 6.23181C4.31155 6.23181 5.27344 5.34988 5.27344 4.26197C5.27344 3.17406 4.31155 2.29214 3.125 2.29214C1.93845 2.29214 0.976562 3.17406 0.976562 4.26197C0.976562 5.34988 1.93845 6.23181 3.125 6.23181Z" fill="#474747"/>
<path d="M5.2418 8.00075C4.39609 7.36546 3.6302 7.44956 2.65234 7.44956C1.18984 7.44956 0 8.53404 0 9.86672V13.7781C0 14.3569 0.515234 14.8275 1.14883 14.8275C3.88422 14.8275 3.55469 14.8729 3.55469 14.7193C3.55469 11.9477 3.19664 9.91518 5.2418 8.00075Z" fill="#474747"/>
<path d="M10.9301 7.46385C9.22211 7.33323 7.73754 7.46535 6.45703 8.43444C4.31418 10.0082 4.72656 12.1271 4.72656 14.7193C4.72656 15.4051 5.33516 15.9735 6.09453 15.9735C14.3399 15.9735 14.6681 16.2174 15.157 15.2246C15.3174 14.8889 15.2734 14.9956 15.2734 11.7839C15.2734 9.2329 12.8643 7.46385 10.9301 7.46385Z" fill="#474747"/>
<path d="M17.3477 7.44952C16.3645 7.44952 15.6028 7.36629 14.7582 8.00072C16.7881 9.90093 16.4453 11.7948 16.4453 14.7193C16.4453 14.8738 16.1718 14.8274 18.8102 14.8274C19.4664 14.8274 20 14.34 20 13.7408V9.86669C20 8.53401 18.8102 7.44952 17.3477 7.44952Z" fill="#474747"/>
</svg>
