<svg width="19" height="19" viewBox="0 0 19 19" fill="none" xmlns="http://www.w3.org/2000/svg">
<path d="M13.6253 18.5671C13.6854 18.4004 13.677 18.2167 13.6021 18.0561C13.5271 17.8956 13.3917 17.7712 13.2254 17.7102L10.2767 16.6394C10.1674 16.5993 10.0704 16.5315 9.9953 16.4425C9.92019 16.3535 9.86958 16.2464 9.84845 16.1319L9.31952 13.2163C9.30154 13.1204 9.26324 13.0294 9.2072 12.9496L7.32243 10.2773L6.19923 9.78723C6.11818 9.75186 6.05448 9.68572 6.02217 9.60338C5.98986 9.52103 5.99156 9.42922 6.02692 9.34813C6.06228 9.26705 6.12839 9.20333 6.21071 9.17101C6.29303 9.13868 6.38481 9.14039 6.46587 9.17576L12.0652 11.6139C12.227 11.6836 12.4098 11.6863 12.5737 11.6215C12.7375 11.5567 12.8691 11.4297 12.9395 11.2681C13.01 11.1066 13.0137 10.9237 12.9498 10.7595C12.8859 10.5953 12.7595 10.463 12.5984 10.3917L4.93272 7.05764C4.79935 6.99915 4.65049 6.98597 4.50892 7.0201C4.36734 7.05423 4.24083 7.1338 4.14873 7.24664C4.05664 7.35949 4.00401 7.4994 3.99891 7.64499C3.99381 7.79058 4.03651 7.93384 4.12049 8.05286L6.85049 11.9203C6.9167 12.014 6.95763 12.1232 6.96932 12.2373C6.98101 12.3515 6.96307 12.4667 6.91722 12.5719C6.87138 12.677 6.79918 12.7686 6.70762 12.8377C6.61606 12.9067 6.50822 12.951 6.39454 12.9662L3.57623 13.343C3.45802 13.3587 3.34619 13.4058 3.2524 13.4795C3.1586 13.5531 3.08628 13.6506 3.04296 13.7617L1.3765 18.096C1.31315 18.2609 1.31766 18.4443 1.38904 18.6059C1.46043 18.7675 1.59289 18.8943 1.75745 18.9585C1.92279 19.0191 2.10518 19.0131 2.2662 18.9419C2.42722 18.8706 2.55431 18.7396 2.62068 18.5764L4.00284 14.9807C4.04572 14.869 4.11786 14.7709 4.21169 14.6967C4.30551 14.6225 4.41757 14.5749 4.53611 14.5589L7.49141 14.1638C7.52137 14.16 7.55153 14.158 7.58173 14.1578C7.73745 14.1583 7.8881 14.2132 8.00755 14.3131C8.127 14.4131 8.2077 14.5517 8.23565 14.7049L8.67526 17.1231C8.69574 17.2373 8.74578 17.3442 8.8204 17.4331C8.89501 17.5219 8.9916 17.5897 9.10054 17.6296L12.7668 18.9632C12.9333 19.02 13.1154 19.0106 13.2752 18.9369C13.435 18.8631 13.5604 18.7307 13.6253 18.5671Z" fill="#F8991D"/>
<path d="M14.5169 4.01133C14.3311 3.92139 14.122 3.89153 13.9185 3.92591C13.7151 3.96028 13.5274 4.05717 13.3814 4.20313C13.2355 4.34909 13.1387 4.53688 13.1043 4.74042C13.07 4.94396 13.0998 5.15315 13.1897 5.33894L14.5169 4.01133Z" fill="#F8991D"/>
<path d="M9.7478 2.41666C9.02811 3.14275 8.55589 4.07756 8.39844 5.08786C8.24098 6.09816 8.40633 7.1324 8.8709 8.04319L12.8651 9.78022C13.0456 9.85958 13.2061 9.97831 13.3349 10.1277C13.4637 10.2771 13.5574 10.4534 13.6093 10.6437C14.3813 10.572 15.1248 10.3155 15.7767 9.89569C16.4287 9.47593 16.9701 8.90532 17.3551 8.23209C17.7401 7.55886 17.9574 6.80281 17.9886 6.02784C18.0199 5.25287 17.8642 4.48176 17.5346 3.7797C17.2051 3.07763 16.7115 2.46525 16.0954 1.9943C15.4794 1.52336 14.759 1.20771 13.9953 1.07402C13.2316 0.940331 12.4469 0.992542 11.7076 1.22624C10.9683 1.45993 10.2961 1.86824 9.7478 2.41666ZM15.0078 3.52022L15.0318 3.49622C15.0944 3.4337 15.1792 3.3986 15.2676 3.39863C15.356 3.39866 15.4408 3.43383 15.5033 3.49639C15.5657 3.55895 15.6008 3.64378 15.6008 3.73222C15.6008 3.82066 15.5656 3.90547 15.5031 3.96799L15.4791 3.99199C15.6903 4.31274 15.7846 4.69652 15.7461 5.07868C15.7075 5.46084 15.5385 5.81804 15.2674 6.0901C15.2367 6.12195 15.1999 6.14735 15.1593 6.16482C15.1186 6.18229 15.0749 6.19149 15.0306 6.19188C14.9864 6.19226 14.9425 6.18383 14.9015 6.16706C14.8605 6.1503 14.8233 6.12554 14.792 6.09424C14.7607 6.06293 14.736 6.02571 14.7192 5.98473C14.7025 5.94376 14.6941 5.89986 14.6944 5.85559C14.6948 5.81132 14.704 5.76757 14.7215 5.72689C14.7389 5.68622 14.7643 5.64943 14.7962 5.61867C14.9413 5.47226 15.0376 5.28457 15.0719 5.0813C15.1063 4.87802 15.077 4.66909 14.9881 4.4831L13.5937 5.87806C13.8054 6.19861 13.8999 6.58247 13.8613 6.96472C13.8227 7.34697 13.6532 7.70415 13.3817 7.97582C13.1101 8.24749 12.753 8.41698 12.3709 8.45562C11.9888 8.49426 11.605 8.39969 11.2846 8.18788L11.2609 8.21156C11.2302 8.2434 11.1934 8.2688 11.1528 8.28627C11.1121 8.30375 11.0684 8.31294 11.0241 8.31333C10.9799 8.31371 10.936 8.30528 10.895 8.28851C10.854 8.27175 10.8168 8.24699 10.7855 8.21569C10.7542 8.18438 10.7295 8.14716 10.7127 8.10618C10.696 8.06521 10.6875 8.02131 10.6879 7.97704C10.6883 7.93277 10.6975 7.88902 10.715 7.84834C10.7324 7.80767 10.7578 7.77088 10.7897 7.74012L10.8133 7.71645C10.6016 7.39591 10.507 7.01204 10.5457 6.62978C10.5843 6.24752 10.7537 5.89035 11.0253 5.61867C11.0882 5.55794 11.1724 5.52433 11.2597 5.52509C11.3471 5.52585 11.4307 5.56092 11.4925 5.62273C11.5543 5.68455 11.5894 5.76817 11.5901 5.85559C11.5909 5.94301 11.5573 6.02722 11.4966 6.0901C11.3497 6.2354 11.2521 6.42315 11.2175 6.62687C11.183 6.8306 11.2132 7.04004 11.3039 7.22568L12.6984 5.83005C12.4867 5.5095 12.3922 5.12564 12.4308 4.74339C12.4694 4.36113 12.6389 4.00396 12.9104 3.73229C13.182 3.46062 13.5391 3.29113 13.9212 3.25249C14.3033 3.21384 14.6874 3.30842 15.0078 3.52022Z" fill="#F8991D"/>
<path d="M11.7785 7.69345C11.9647 7.7787 12.1722 7.80622 12.3742 7.77247C12.5761 7.73872 12.7634 7.64524 12.9117 7.50407C13.0586 7.35868 13.1562 7.1709 13.1908 6.96715C13.2254 6.7634 13.1953 6.55392 13.1047 6.36816L11.7785 7.69345Z" fill="#F8991D"/>
<path d="M1.33317 6.66856C2.06946 6.66856 2.66634 6.07148 2.66634 5.33494C2.66634 4.59841 2.06946 4.00133 1.33317 4.00133C0.59688 4.00133 0 4.59841 0 5.33494C0 6.07148 0.59688 6.66856 1.33317 6.66856Z" fill="#F8991D"/>
<path d="M17.2909 0.293536C17.1466 0.43803 17.0504 0.623482 17.0152 0.824649C16.9576 0.805669 16.8958 0.802939 16.8368 0.816761C16.7777 0.830582 16.7235 0.86042 16.6803 0.902999L16.2783 1.30509C16.8359 1.68241 17.3163 2.16291 17.6935 2.72072L18.0954 2.31863C18.1377 2.27553 18.1673 2.22166 18.1811 2.16288C18.195 2.1041 18.1924 2.04266 18.1738 1.98523C18.3286 1.95792 18.4747 1.8945 18.6004 1.80009C18.7261 1.70568 18.8278 1.58296 18.8972 1.44188C18.9666 1.3008 19.0018 1.14534 18.9999 0.98811C18.998 0.830881 18.9591 0.676315 18.8863 0.536957C18.8135 0.397599 18.7089 0.277374 18.5809 0.186039C18.453 0.0947034 18.3053 0.0348315 18.1499 0.0112816C17.9945 -0.0122682 17.8357 0.00116746 17.6864 0.0504983C17.5372 0.0998291 17.4017 0.183665 17.2909 0.295203V0.293536ZM18.2334 1.2364C18.1868 1.28304 18.1274 1.3148 18.0628 1.32768C17.9981 1.34055 17.9311 1.33395 17.8702 1.30872C17.8093 1.28349 17.7572 1.24076 17.7206 1.18593C17.684 1.1311 17.6644 1.06663 17.6644 1.00069C17.6644 0.934741 17.684 0.870277 17.7206 0.815447C17.7572 0.760617 17.8093 0.717883 17.8702 0.692652C17.9311 0.66742 17.9981 0.660823 18.0628 0.673696C18.1274 0.686569 18.1868 0.718332 18.2334 0.76497C18.2959 0.827493 18.331 0.91228 18.331 1.00069C18.331 1.08909 18.2959 1.17388 18.2334 1.2364Z" fill="#F8991D"/>
</svg>
