<svg width="18" height="18" viewBox="0 0 18 18" fill="none" xmlns="http://www.w3.org/2000/svg">
<path d="M9.66637 6.22498L9 4.88191L8.33363 6.22498C8.26505 6.36314 8.13253 6.45894 7.97917 6.48109L6.48902 6.69646L7.56733 7.74188C7.67823 7.84948 7.72888 8.00441 7.70271 8.15634L7.44814 9.63252L8.78097 8.93554C8.84951 8.89968 8.92478 8.88179 9 8.88179C9.07522 8.88179 9.15049 8.89972 9.21903 8.93554L10.5519 9.63252L10.2973 8.15634C10.2711 8.00446 10.3218 7.84948 10.4327 7.74188L11.511 6.69646L10.0208 6.48109C9.86751 6.45894 9.73495 6.36314 9.66637 6.22498Z" fill="#474747"/>
<path d="M15.7736 7.6725C15.7333 7.54912 15.7333 7.41868 15.7736 7.29526L16.1551 6.12754C16.364 5.48825 16.1369 4.79323 15.5901 4.39806L14.5915 3.67637C14.486 3.60009 14.4088 3.49456 14.3686 3.37114L13.9871 2.20342C13.7782 1.56413 13.1838 1.13459 12.5079 1.13459H11.2735C11.1431 1.13459 11.0183 1.09428 10.9128 1.01801L9.91407 0.296307C9.36731 -0.098769 8.63259 -0.098769 8.08584 0.296307L7.08718 1.01801C6.98164 1.09428 6.8569 1.13459 6.72646 1.13459H5.49201C4.81623 1.13459 4.22179 1.56413 4.01288 2.20347L3.6314 3.37123C3.5911 3.49461 3.514 3.60014 3.40846 3.67641L2.4098 4.39811C1.8631 4.79323 1.63601 5.48825 1.84488 6.12754L2.22636 7.29531C2.2667 7.41868 2.2667 7.54912 2.22636 7.67254L1.84488 8.84031C1.63601 9.4796 1.8631 10.1746 2.40985 10.5698L3.40855 11.2915C3.51409 11.3678 3.59115 11.4733 3.63145 11.5968L4.01293 12.7645C4.22184 13.4038 4.81623 13.8333 5.49206 13.8333H6.72651C6.85695 13.8333 6.98169 13.8736 7.08723 13.9499L8.08593 14.6715C8.35938 14.8691 8.67962 14.9679 9.00005 14.9679C9.32038 14.9679 9.64081 14.8691 9.91416 14.6716L10.9129 13.9499C11.0184 13.8736 11.1431 13.8333 11.2736 13.8333H12.508C13.1838 13.8333 13.7783 13.4038 13.9872 12.7644L14.3686 11.5967C14.4089 11.4733 14.486 11.3678 14.5916 11.2915L15.5902 10.5697C16.137 10.1746 16.364 9.4796 16.1552 8.84026L15.7736 7.6725ZM12.8512 6.70484L11.2671 8.24062L11.6411 10.4092C11.6714 10.5849 11.5988 10.7624 11.4538 10.8672C11.3718 10.9265 11.2746 10.9566 11.177 10.9566C11.1021 10.9566 11.0269 10.9389 10.9581 10.9029L9 9.87894L7.04194 10.9028C6.8834 10.9857 6.69115 10.972 6.54622 10.8672C6.40128 10.7625 6.32864 10.5849 6.35891 10.4092L6.73286 8.24062L5.1488 6.70484C5.02048 6.58044 4.97435 6.39437 5.02971 6.22488C5.08511 6.05539 5.2324 5.93188 5.40968 5.90622L7.59887 5.5898L8.57785 3.61672C8.65717 3.45692 8.82079 3.35573 9 3.35573C9.17921 3.35573 9.34283 3.45692 9.42215 3.61672L10.4011 5.5898L12.5903 5.90622C12.7676 5.93183 12.9149 6.05539 12.9703 6.22488C13.0256 6.39437 12.9795 6.58044 12.8512 6.70484Z" fill="#474747"/>
<path d="M17.862 13.7894L15.6383 11.5771L15.1511 11.9287L14.7928 13.0248C14.4704 14.0127 13.552 14.6762 12.5079 14.6762H11.3494L10.8933 15.0053L13.7666 17.8628C13.8556 17.9513 13.9761 18 14.0994 18C14.1314 18 14.1639 17.9967 14.1959 17.9897C14.3513 17.9574 14.4798 17.8492 14.5377 17.7022L15.4274 15.4408L17.7005 14.5563C17.8488 14.4987 17.9576 14.3709 17.99 14.2159C18.0225 14.0614 17.9745 13.9008 17.862 13.7894Z" fill="#474747"/>
<path d="M6.65058 14.6762H5.49211C4.44802 14.6762 3.52963 14.0127 3.20718 13.0248L2.84895 11.9287L2.36174 11.5771L0.138004 13.7894C0.0254994 13.9008 -0.0225153 14.0614 0.00996517 14.2159C0.0424457 14.3709 0.151185 14.4987 0.299465 14.5563L2.57263 15.4408L3.46231 17.7022C3.52021 17.8492 3.64872 17.9574 3.80406 17.9897C3.83607 17.9967 3.86855 18 3.90056 18C4.02389 18 4.1444 17.9513 4.23337 17.8628L7.10672 15.0053L6.65058 14.6762Z" fill="#474747"/>
</svg>
