<svg width="9" height="10" viewBox="0 0 9 10" fill="none" xmlns="http://www.w3.org/2000/svg">
<path d="M5.23659 9.39895C5.24356 9.35803 5.24677 9.31662 5.24621 9.27519L5.24621 2.22039L5.3213 2.37422C5.39599 2.52459 5.49763 2.66138 5.62164 2.77847L7.69778 4.75682C7.9588 5.01737 8.3787 5.06115 8.69268 4.86057C9.02726 4.62711 9.0999 4.17941 8.85491 3.86057C8.83511 3.83481 8.81352 3.81033 8.79029 3.78732L5.03597 0.209847C4.7429 -0.0697329 4.26748 -0.0699789 3.97408 0.209288C3.9739 0.209467 3.97369 0.209668 3.9735 0.209847L0.219179 3.78732C-0.0736341 4.06713 -0.0729773 4.52015 0.220657 4.79919C0.24377 4.82115 0.26836 4.84165 0.294265 4.86056C0.608244 5.06115 1.02814 5.01737 1.28916 4.75682L3.36905 2.78205C3.47934 2.67708 3.57181 2.55638 3.64312 2.4243L3.74448 2.20966L3.74448 9.23582C3.73024 9.60132 3.99818 9.922 4.37521 9.99066C4.78455 10.0539 5.17019 9.78901 5.23659 9.39895Z" fill="#F8991D"/>
</svg>
